<svg width="26" height="32" viewBox="0 0 26 32" fill="none" xmlns="http://www.w3.org/2000/svg">
<path d="M19.364 0.016014C19.296 -0.059986 16.846 0.0460141 14.714 2.36001C12.582 4.67201 12.91 7.32401 12.958 7.39201C13.006 7.46001 15.998 7.56601 17.908 4.87601C19.818 2.18601 19.432 0.094014 19.364 0.016014ZM25.992 23.482C25.896 23.29 21.342 21.014 21.766 16.638C22.19 12.26 25.116 11.06 25.162 10.93C25.208 10.8 23.968 9.35001 22.654 8.61601C21.6892 8.09852 20.6214 7.80203 19.528 7.74801C19.312 7.74201 18.562 7.55801 17.02 7.98001C16.004 8.25801 13.714 9.15801 13.084 9.19401C12.452 9.23001 10.572 8.15001 8.54997 7.86401C7.25597 7.61401 5.88397 8.12601 4.90197 8.52001C3.92197 8.91201 2.05797 10.028 0.753974 12.994C-0.550026 15.958 0.131974 20.654 0.619974 22.114C1.10797 23.572 1.86997 25.962 3.16597 27.706C4.31797 29.674 5.84597 31.04 6.48397 31.504C7.12197 31.968 8.92197 32.276 10.17 31.638C11.174 31.022 12.986 30.668 13.702 30.694C14.416 30.72 15.824 31.002 17.266 31.772C18.408 32.166 19.488 32.002 20.57 31.562C21.652 31.12 23.218 29.444 25.046 26.046C25.74 24.466 26.056 23.612 25.992 23.482Z" fill="white"/>
</svg>
