<svg width="32" height="32" viewBox="0 0 32 32" fill="none" xmlns="http://www.w3.org/2000/svg">
<path d="M28.608 13.5387C28.772 14.4174 28.8613 15.336 28.8613 16.2947C28.8613 23.7934 23.8427 29.1254 16.2627 29.1254C14.5389 29.1259 12.8319 28.7867 11.2392 28.1273C9.64652 27.4679 8.19938 26.5011 6.98048 25.2822C5.76157 24.0633 4.79479 22.6162 4.13537 21.0235C3.47594 19.4308 3.1368 17.7238 3.13733 16C3.1368 14.2762 3.47594 12.5692 4.13537 10.9766C4.79479 9.38388 5.76157 7.93675 6.98048 6.71784C8.19938 5.49894 9.64652 4.53216 11.2392 3.87273C12.8319 3.21331 14.5389 2.87417 16.2627 2.8747C19.8067 2.8747 22.768 4.1787 25.04 6.29603L21.34 9.99603V9.9867C19.9627 8.6747 18.2147 8.00136 16.2627 8.00136C11.932 8.00136 8.412 11.66 8.412 15.992C8.412 20.3227 11.932 23.9894 16.2627 23.9894C20.192 23.9894 22.8667 21.7427 23.416 18.6574H16.2627V13.5387H28.6093H28.608Z" fill="white"/>
</svg>
